<?xml version="1.0" encoding="UTF-8"?>
<svg xmlns="http://www.w3.org/2000/svg" xmlns:xlink="http://www.w3.org/1999/xlink" viewBox="0 0 1920.36 1087.66"><defs><style>.cls-1{fill:none;}.cls-1,.cls-2,.cls-3{stroke:#000;stroke-miterlimit:10;}.cls-2{fill:#fff;}.cls-4{fill:url(#linear-gradient);}</style><linearGradient id="linear-gradient" x1=".5" y1="543.83" x2="1919.86" y2="543.83" gradientUnits="userSpaceOnUse"><stop offset="0" stop-color="#7fff8b"/><stop offset="1" stop-color="#92ff6a"/></linearGradient></defs><g id="Background"><rect class="cls-4" x=".5" y=".5" width="1919.36" height="1086.66"/><path d="M1919.36,1v1085.66H1V1h1918.36M1920.36,0H0v1087.66h1920.36V0h0Z"/></g><g id="GoalPost"><image width="572" height="480" transform="translate(1360.32 381.39) scale(.92)" xlink:href="../../../../../OneDrive/Pictures/Screenshots/soccer_post.png"/></g><g id="ball"><circle class="cls-2" cx="960.18" cy="603.02" r="108.15"/><polygon class="cls-3" points="882.03 607.33 869.19 563.95 906.46 538.73 942.34 566.52 927.24 608.92 882.03 607.33"/><polygon class="cls-3" points="991.18 651.92 980.88 695.97 936 699.45 918.58 657.54 952.68 628.17 991.18 651.92"/><polygon class="cls-3" points="1056.31 572.79 1036.2 613.32 991.72 606.44 984.34 561.66 1024.26 540.86 1056.31 572.79"/><line class="cls-1" x1="942.34" y1="566.52" x2="984.34" y2="561.66"/><line class="cls-1" x1="927.24" y1="608.92" x2="960.18" y2="632.8"/><line class="cls-1" x1="991.72" y1="606.44" x2="960.18" y2="632.8"/><line class="cls-1" x1="1024.26" y1="540.86" x2="984.27" y2="497.57"/><line class="cls-1" x1="906.46" y1="538.73" x2="935.53" y2="497.7"/><line class="cls-1" x1="869.19" y1="563.95" x2="859.26" y2="564.09"/><line class="cls-1" x1="882.03" y1="607.33" x2="857.84" y2="638.05"/><line class="cls-1" x1="918.58" y1="657.54" x2="889.73" y2="685.07"/><line class="cls-1" x1="991.18" y1="651.92" x2="1034.87" y2="681.24"/><line class="cls-1" x1="1036.2" y1="613.32" x2="1060.61" y2="643.22"/><line class="cls-1" x1="1056.31" y1="572.79" x2="1065.19" y2="577.09"/></g><g id="G"><path d="M695.96,263.91l-20.02,74.91h47.94l5.63-20.98h-23.97l11.15-41.95h71.92l-22.41,83.9-26.61,20.98h-101.88l-15.34-20.98,25.65-95.89h47.94ZM650.41,254.92l5.63-20.98,26.49-20.98h122.98l-11.27,41.95h-143.83Z"/></g><g id="O"><path d="M939.17,361.12l-27.54,21.53-105.43.12-15.88-21.53,34.85-129.17,27.41-21.53h105.56l15.88,21.53-34.85,129.05ZM918.58,253.6h-49.62l-23.2,86.11,49.62-.12,23.19-85.99Z"/></g><g id="A"><path d="M1040.81,337.72l-24.81,43.06h-49.62l99.23-172.23h74.42l6.2,172.23h-49.62l-1.49-43.06h-54.33ZM1091.91,249.02l-26.17,45.64h27.91l-1.74-45.64Z"/></g><g id="L"><path d="M1205.28,210.54h49.49l-34.85,129.17h99.35l-11.78,43.06h-148.85l46.64-172.23Z"/></g></svg>